# Blender v2.74 (sub 0) OBJ File: 'Bullet.blend'
# www.blender.org
o Bullet
v 0.010874 13.920697 0.019999
v 0.020874 13.920589 -0.000001
v -0.009124 13.920915 -0.000001
v 0.010874 13.920697 -0.020001
v -0.009124 13.920915 -0.030001
v -0.029123 13.921131 -0.020001
v -0.039123 13.921240 -0.000001
v -0.029123 13.921131 0.019999
v -0.009124 13.920915 0.029999
v 1.170108 8.307803 1.179999
v 1.660188 8.312492 -0.000001
v 1.502907 8.564212 -0.000001
v 1.062824 8.558980 1.059999
v 1.170108 8.307803 -1.180001
v 1.062824 8.558980 -1.060001
v 0.000069 8.310484 -1.660001
v -0.007221 8.560578 -1.500001
v -1.180079 8.303275 -1.180001
v -1.067267 8.562068 -1.060001
v -1.670050 8.308586 -0.000001
v -1.507350 8.556837 -0.000001
v -1.180079 8.303275 1.179999
v -1.067267 8.562068 1.059999
v 0.000069 8.310484 1.659999
v -0.007221 8.560578 1.499999
v 0.884485 11.481086 -0.000001
v 0.624500 11.483904 0.629999
v 0.624500 11.483904 -0.630001
v -0.005572 11.480732 -0.890001
v -0.635643 11.477560 -0.630001
v -0.895628 11.480378 -0.000001
v -0.635643 11.477560 0.629999
v -0.005572 11.480732 0.889999
v 1.170108 -1.692197 1.179999
v 1.660188 -1.687508 -0.000001
v 1.170108 -1.692197 -1.180001
v 0.000069 -1.689516 -1.660001
v -1.180079 -1.696725 -1.180001
v -1.670050 -1.691414 -0.000001
v -1.180079 -1.696725 1.179999
v 0.000069 -1.689516 1.659999
vn 0.456600 0.766800 0.451200
vn 0.679700 0.733500 0.000000
vn 0.008600 1.000000 0.000000
vn 0.455300 0.767500 -0.451300
vn 0.002700 0.736200 -0.676800
vn -0.448100 0.771200 -0.452200
vn -0.670400 0.742000 0.000000
vn -0.446500 0.773000 0.450600
vn 0.002700 0.736600 0.676300
vn 0.678900 0.263200 0.685400
vn 0.965500 0.260300 -0.000000
vn 0.921000 0.389600 0.000200
vn 0.651500 0.394600 0.648000
vn 0.678900 0.263100 -0.685500
vn 0.651500 0.394800 -0.647800
vn 0.003000 0.266100 -0.963900
vn -0.003800 0.395800 -0.918300
vn -0.679100 0.262900 -0.685400
vn -0.650600 0.393700 -0.649400
vn -0.964200 0.265200 0.000000
vn -0.918400 0.395700 -0.000300
vn -0.679000 0.263000 0.685400
vn -0.650800 0.393700 0.649200
vn 0.003000 0.266100 0.963900
vn -0.004000 0.395800 0.918300
vn 0.964200 0.263100 -0.033500
vn 0.673600 0.298800 0.676000
vn 0.657700 0.262100 -0.706200
vn -0.034500 0.261200 -0.964700
vn -0.706000 0.260100 -0.658700
vn -0.964700 0.261300 0.033600
vn -0.658400 0.261100 0.705900
vn 0.032500 0.261800 0.964600
vn 0.001000 0.000000 1.000000
vn 0.705500 -0.000000 0.708700
vn -0.704700 -0.000200 0.709600
vn -1.000000 -0.000400 -0.000000
vn -0.704600 -0.000200 -0.709600
vn 0.001000 0.000000 -1.000000
vn 0.705400 0.000000 -0.708800
vn 1.000000 -0.000100 -0.000100
s 1
f 1//1 2//2 3//3
f 2//2 4//4 3//3
f 4//4 5//5 3//3
f 5//5 6//6 3//3
f 6//6 7//7 3//3
f 7//7 8//8 3//3
f 8//8 9//9 3//3
f 9//9 1//1 3//3
f 10//10 11//11 12//12 13//13
f 11//11 14//14 15//15 12//12
f 14//14 16//16 17//17 15//15
f 16//16 18//18 19//19 17//17
f 18//18 20//20 21//21 19//19
f 20//20 22//22 23//23 21//21
f 22//22 24//24 25//25 23//23
f 24//24 10//10 13//13 25//25
f 13//13 12//12 26//26 27//27
f 12//12 15//15 28//28 26//26
f 15//15 17//17 29//29 28//28
f 17//17 19//19 30//30 29//29
f 19//19 21//21 31//31 30//30
f 21//21 23//23 32//32 31//31
f 23//23 25//25 33//33 32//32
f 25//25 13//13 27//27 33//33
f 27//27 26//26 2//2 1//1
f 26//26 28//28 4//4 2//2
f 28//28 29//29 5//5 4//4
f 29//29 30//30 6//6 5//5
f 30//30 31//31 7//7 6//6
f 31//31 32//32 8//8 7//7
f 32//32 33//33 9//9 8//8
f 33//33 27//27 1//1 9//9
f 10//10 24//24 41//34 34//35
f 24//24 22//22 40//36 41//34
f 22//22 20//20 39//37 40//36
f 20//20 18//18 38//38 39//37
f 18//18 16//16 37//39 38//38
f 16//16 14//14 36//40 37//39
f 14//14 11//11 35//41 36//40
f 11//11 10//10 34//35 35//41
